# xmcd
#
# Track frame offsets: 
#        150
#        16432
#        31215
#        42965
#        51007
#        64772
#        85015
#        94602
#        105407
#        132187
#        146422
#        157767
#
# Disc length: 2264 seconds
#
# Revision: 4
# Processed by: cddbd v1.5.2PL0 Copyright (c) Steve Scherf et al.
# Submitted via: ExactAudioCopyFreeDBPlugin 1.0
#
DISCID=8908d60c
DTITLE=John Mayall and the Bluesbreakers - Bluesbreakers with Eric Cla
DTITLE=pton
DYEAR=1966
DGENRE=Blues
TTITLE0=All Your Love
TTITLE1=Hideaway
TTITLE2=Little Girl
TTITLE3=Another Man
TTITLE4=Double Crossing Time
TTITLE5=What'd I Say
TTITLE6=Key To Love
TTITLE7=Parchman Farm
TTITLE8=Have You Heard
TTITLE9=Ramblin' On My Mind
TTITLE10=Steppin' Out
TTITLE11=It Ain't Right
EXTD=YEAR: 1966
EXTT0=
EXTT1=
EXTT2=
EXTT3=
EXTT4=
EXTT5=
EXTT6=
EXTT7=
EXTT8=
EXTT9=
EXTT10=
EXTT11=
PLAYORDER=
